<svg xmlns="http://www.w3.org/2000/svg" xmlns:xlink="http://www.w3.org/1999/xlink" width="633" zoomAndPan="magnify" viewBox="0 0 474.75 386.250002" height="515" preserveAspectRatio="xMidYMid meet" version="1.0"><defs><g/><clipPath id="cc116b5afd"><path d="M 385.117188 123.890625 L 421.796875 123.890625 L 421.796875 160.570312 L 385.117188 160.570312 Z M 385.117188 123.890625 " clip-rule="nonzero"/></clipPath></defs><g clip-path="url(#cc116b5afd)"><path fill="#4f61c7" d="M 422.109375 142.386719 C 404.382812 142.8125 404.039062 143.15625 403.613281 160.882812 C 403.1875 143.15625 402.84375 142.8125 385.117188 142.386719 C 402.84375 141.960938 403.1875 141.617188 403.613281 123.890625 C 404.039062 141.617188 404.382812 141.960938 422.109375 142.386719 Z M 422.109375 142.386719 " fill-opacity="1" fill-rule="nonzero"/></g><g fill="#000000" fill-opacity="1"><g transform="translate(131.826043, 236.433591)"><g><path d="M 32.421875 -85.140625 L 32.421875 -38.328125 C 32.421875 -24.566406 37.046875 -17.6875 46.296875 -17.6875 C 55.546875 -17.6875 60.171875 -24.566406 60.171875 -38.328125 L 60.171875 -85.140625 L 84.453125 -85.140625 L 84.453125 -34.328125 C 84.453125 -22.660156 81.328125 -13.554688 75.078125 -7.015625 C 68.835938 -0.484375 59.242188 2.78125 46.296875 2.78125 C 33.460938 2.78125 23.894531 -0.515625 17.59375 -7.109375 C 11.300781 -13.703125 8.15625 -22.773438 8.15625 -34.328125 L 8.15625 -85.140625 Z M 32.421875 -85.140625 "/></g></g></g><g fill="#000000" fill-opacity="1"><g transform="translate(310.831739, 148.741376)"><g><path d="M -32.421875 85.140625 L -32.421875 38.328125 C -32.421875 24.566406 -37.046875 17.6875 -46.296875 17.6875 C -55.546875 17.6875 -60.171875 24.566406 -60.171875 38.328125 L -60.171875 85.140625 L -84.453125 85.140625 L -84.453125 34.328125 C -84.453125 22.660156 -81.328125 13.554688 -75.078125 7.015625 C -68.835938 0.484375 -59.242188 -2.78125 -46.296875 -2.78125 C -33.460938 -2.78125 -23.894531 0.515625 -17.59375 7.109375 C -11.300781 13.703125 -8.15625 22.773438 -8.15625 34.328125 L -8.15625 85.140625 Z M -32.421875 85.140625 "/></g></g></g><g fill="#000000" fill-opacity="1"><g transform="translate(304.967431, 236.433591)"><g><path d="M 32.421875 -85.140625 L 32.421875 -38.328125 C 32.421875 -24.566406 37.046875 -17.6875 46.296875 -17.6875 C 55.546875 -17.6875 60.171875 -24.566406 60.171875 -38.328125 L 60.171875 -85.140625 L 84.453125 -85.140625 L 84.453125 -34.328125 C 84.453125 -22.660156 81.328125 -13.554688 75.078125 -7.015625 C 68.835938 -0.484375 59.242188 2.78125 46.296875 2.78125 C 33.460938 2.78125 23.894531 -0.515625 17.59375 -7.109375 C 11.300781 -13.703125 8.15625 -22.773438 8.15625 -34.328125 L 8.15625 -85.140625 Z M 32.421875 -85.140625 "/></g></g></g><g fill="#000000" fill-opacity="1"><g transform="translate(66.427218, 236.596102)"><g><path d="M 62.46875 -87.359375 L 62.46875 -27.875 C 62.46875 -18.664062 59.875 -11.570312 54.6875 -6.59375 C 49.507812 -1.613281 42.523438 0.875 33.734375 0.875 C 24.515625 0.875 17.125 -1.738281 11.5625 -6.96875 C 6.007812 -12.195312 3.234375 -19.625 3.234375 -29.25 L 24.390625 -29.25 C 24.390625 -25.59375 25.132812 -22.832031 26.625 -20.96875 C 28.125 -19.101562 30.285156 -18.171875 33.109375 -18.171875 C 35.679688 -18.171875 37.671875 -19 39.078125 -20.65625 C 40.484375 -22.3125 41.1875 -24.71875 41.1875 -27.875 L 41.1875 -87.359375 Z M 62.46875 -87.359375 "/></g></g></g></svg>