<svg xmlns="http://www.w3.org/2000/svg" xmlns:xlink="http://www.w3.org/1999/xlink" width="180" zoomAndPan="magnify" viewBox="0 0 135 110.249996" height="147" preserveAspectRatio="xMidYMid meet" version="1.0"><defs><g/><clipPath id="db3f28f3eb"><path d="M 107.378906 29.679688 L 124.515625 29.679688 L 124.515625 46.8125 L 107.378906 46.8125 Z M 107.378906 29.679688 " clip-rule="nonzero"/></clipPath></defs><g clip-path="url(#db3f28f3eb)"><path fill="#729cc9" d="M 124.269531 38.121094 C 116.175781 38.316406 116.019531 38.472656 115.824219 46.566406 C 115.628906 38.472656 115.472656 38.316406 107.378906 38.121094 C 115.472656 37.929688 115.628906 37.769531 115.824219 29.679688 C 116.019531 37.769531 116.175781 37.929688 124.269531 38.121094 Z M 124.269531 38.121094 " fill-opacity="1" fill-rule="nonzero"/></g><g fill="#2e323a" fill-opacity="1"><g transform="translate(37.590788, 66.771924)"><g><path d="M 9.15625 -24.046875 L 9.15625 -10.828125 C 9.15625 -6.941406 10.460938 -5 13.078125 -5 C 15.679688 -5 16.984375 -6.941406 16.984375 -10.828125 L 16.984375 -24.046875 L 23.84375 -24.046875 L 23.84375 -9.703125 C 23.84375 -6.398438 22.960938 -3.828125 21.203125 -1.984375 C 19.441406 -0.140625 16.734375 0.78125 13.078125 0.78125 C 9.453125 0.78125 6.75 -0.144531 4.96875 -2 C 3.1875 -3.863281 2.296875 -6.429688 2.296875 -9.703125 L 2.296875 -24.046875 Z M 9.15625 -24.046875 "/></g></g></g><g fill="#2e323a" fill-opacity="1"><g transform="translate(88.136362, 42.000645)"><g><path d="M -9.15625 24.046875 L -9.15625 10.828125 C -9.15625 6.941406 -10.460938 5 -13.078125 5 C -15.679688 5 -16.984375 6.941406 -16.984375 10.828125 L -16.984375 24.046875 L -23.84375 24.046875 L -23.84375 9.703125 C -23.84375 6.398438 -22.960938 3.828125 -21.203125 1.984375 C -19.441406 0.140625 -16.734375 -0.78125 -13.078125 -0.78125 C -9.453125 -0.78125 -6.75 0.144531 -4.96875 2 C -3.1875 3.863281 -2.296875 6.429688 -2.296875 9.703125 L -2.296875 24.046875 Z M -9.15625 24.046875 "/></g></g></g><g fill="#2e323a" fill-opacity="1"><g transform="translate(86.488164, 66.771924)"><g><path d="M 9.15625 -24.046875 L 9.15625 -10.828125 C 9.15625 -6.941406 10.460938 -5 13.078125 -5 C 15.679688 -5 16.984375 -6.941406 16.984375 -10.828125 L 16.984375 -24.046875 L 23.84375 -24.046875 L 23.84375 -9.703125 C 23.84375 -6.398438 22.960938 -3.828125 21.203125 -1.984375 C 19.441406 -0.140625 16.734375 0.78125 13.078125 0.78125 C 9.453125 0.78125 6.75 -0.144531 4.96875 -2 C 3.1875 -3.863281 2.296875 -6.429688 2.296875 -9.703125 L 2.296875 -24.046875 Z M 9.15625 -24.046875 "/></g></g></g><g fill="#2e323a" fill-opacity="1"><g transform="translate(19.12131, 66.817817)"><g><path d="M 17.65625 -24.6875 L 17.65625 -7.875 C 17.65625 -5.269531 16.921875 -3.265625 15.453125 -1.859375 C 13.984375 -0.453125 12.007812 0.25 9.53125 0.25 C 6.925781 0.25 4.835938 -0.488281 3.265625 -1.96875 C 1.703125 -3.445312 0.921875 -5.546875 0.921875 -8.265625 L 6.890625 -8.265625 C 6.890625 -7.234375 7.097656 -6.453125 7.515625 -5.921875 C 7.941406 -5.398438 8.554688 -5.140625 9.359375 -5.140625 C 10.078125 -5.140625 10.632812 -5.375 11.03125 -5.84375 C 11.4375 -6.3125 11.640625 -6.988281 11.640625 -7.875 L 11.640625 -24.6875 Z M 17.65625 -24.6875 "/></g></g></g></svg>