<svg xmlns="http://www.w3.org/2000/svg" xmlns:xlink="http://www.w3.org/1999/xlink" width="187" zoomAndPan="magnify" viewBox="0 0 140.25 81.749997" height="109" preserveAspectRatio="xMidYMid meet" version="1.0"><defs><g/></defs><g fill="#86aedd" fill-opacity="1"><g transform="translate(15.33513, 48.119981)"><g><path d="M 3.4375 -24.90625 L 28.734375 -24.90625 C 30.148438 -24.90625 30.859375 -24.460938 30.859375 -23.578125 C 30.859375 -22.691406 30.148438 -22.25 28.734375 -22.25 L 24.140625 -22.25 C 23.878906 -19.4375 22.8125 -13.820312 20.9375 -5.40625 C 20.164062 -1.976562 19.519531 -0.265625 19 -0.265625 C 18.695312 -0.265625 18.367188 -0.425781 18.015625 -0.75 C 17.671875 -1.070312 17.5 -1.398438 17.5 -1.734375 C 17.5 -2.066406 17.585938 -2.734375 17.765625 -3.734375 C 17.941406 -4.742188 18.1875 -6.097656 18.5 -7.796875 C 18.832031 -9.679688 19.257812 -12.179688 19.78125 -15.296875 C 18.59375 -14.960938 16.3125 -14.5 12.9375 -13.90625 C 13.300781 -13.082031 13.484375 -11.796875 13.484375 -10.046875 C 13.484375 -8.296875 13.117188 -6.753906 12.390625 -5.421875 C 11.671875 -4.097656 10.566406 -3.4375 9.078125 -3.4375 C 7.585938 -3.4375 5.960938 -4.414062 4.203125 -6.375 C 2.453125 -8.332031 1.578125 -10.082031 1.578125 -11.625 C 1.578125 -12.582031 2.03125 -13.34375 2.9375 -13.90625 C 3.96875 -14.519531 4.988281 -14.941406 6 -15.171875 C 7.019531 -15.410156 7.785156 -15.585938 8.296875 -15.703125 C 8.816406 -15.816406 9.601562 -15.960938 10.65625 -16.140625 C 12.019531 -16.378906 15.226562 -17.085938 20.28125 -18.265625 C 20.351562 -18.703125 20.453125 -19.363281 20.578125 -20.25 C 20.710938 -21.144531 20.816406 -21.8125 20.890625 -22.25 L 3.4375 -22.25 C 2.019531 -22.25 1.3125 -22.691406 1.3125 -23.578125 C 1.3125 -24.460938 2.019531 -24.90625 3.4375 -24.90625 Z M 8.8125 -6.25 C 9.5 -6.25 9.984375 -6.601562 10.265625 -7.3125 C 10.554688 -8.019531 10.703125 -8.75 10.703125 -9.5 C 10.703125 -10.25 10.609375 -11.578125 10.421875 -13.484375 C 6.617188 -12.785156 4.71875 -12.007812 4.71875 -11.15625 C 4.71875 -10.257812 5.226562 -9.21875 6.25 -8.03125 C 7.28125 -6.84375 8.132812 -6.25 8.8125 -6.25 Z M 8.8125 -6.25 "/></g></g></g><g fill="#86aedd" fill-opacity="1"><g transform="translate(39.741547, 48.119981)"><g><path d="M 9.65625 -21.359375 L 9.6875 -22.25 L 3.984375 -22.25 C 2.566406 -22.25 1.859375 -22.691406 1.859375 -23.578125 C 1.859375 -24.460938 2.566406 -24.90625 3.984375 -24.90625 L 29.359375 -24.90625 C 30.742188 -24.90625 31.4375 -24.460938 31.4375 -23.578125 C 31.4375 -22.691406 30.742188 -22.25 29.359375 -22.25 L 24.796875 -22.25 C 24.640625 -20.78125 24.234375 -18.628906 23.578125 -15.796875 C 22.921875 -12.960938 22.484375 -11.050781 22.265625 -10.0625 C 22.046875 -9.070312 21.863281 -8.253906 21.71875 -7.609375 C 21.582031 -6.960938 21.410156 -6.222656 21.203125 -5.390625 C 20.992188 -4.554688 20.8125 -3.867188 20.65625 -3.328125 C 20.507812 -2.785156 20.34375 -2.269531 20.15625 -1.78125 C 19.800781 -0.769531 19.484375 -0.265625 19.203125 -0.265625 C 18.890625 -0.265625 18.554688 -0.425781 18.203125 -0.75 C 17.859375 -1.070312 17.6875 -1.398438 17.6875 -1.734375 C 17.6875 -2.066406 17.78125 -2.726562 17.96875 -3.71875 C 18.164062 -4.71875 18.445312 -6.09375 18.8125 -7.84375 C 19.269531 -10.050781 19.65625 -11.992188 19.96875 -13.671875 C 18.289062 -13.265625 15.585938 -12.789062 11.859375 -12.25 C 10.929688 -6.550781 9.191406 -3.703125 6.640625 -3.703125 C 5.359375 -3.703125 4.148438 -4.410156 3.015625 -5.828125 C 1.878906 -7.242188 1.3125 -8.578125 1.3125 -9.828125 C 1.3125 -11.078125 2.003906 -12.039062 3.390625 -12.71875 C 4.785156 -13.40625 6.757812 -13.96875 9.3125 -14.40625 C 9.539062 -16.90625 9.65625 -19.222656 9.65625 -21.359375 Z M 6.5625 -6.296875 C 7.59375 -6.296875 8.394531 -8.109375 8.96875 -11.734375 C 5.71875 -11.171875 4.09375 -10.441406 4.09375 -9.546875 C 4.09375 -8.898438 4.378906 -8.195312 4.953125 -7.4375 C 5.535156 -6.675781 6.070312 -6.296875 6.5625 -6.296875 Z M 12.59375 -22.25 L 12.59375 -21.9375 C 12.59375 -19.46875 12.476562 -17.125 12.25 -14.90625 L 20.46875 -16.265625 C 21.132812 -19.835938 21.507812 -21.832031 21.59375 -22.25 Z M 12.59375 -22.25 "/></g></g></g><g fill="#86aedd" fill-opacity="1"><g transform="translate(64.920316, 48.119981)"><g><path d="M 3.4375 -24.90625 L 45.46875 -24.90625 C 46.851562 -24.90625 47.546875 -24.460938 47.546875 -23.578125 C 47.546875 -22.691406 46.851562 -22.25 45.46875 -22.25 L 40.90625 -22.25 C 40.800781 -21.425781 40.375 -19.390625 39.625 -16.140625 C 38.882812 -12.898438 38.363281 -10.601562 38.0625 -9.25 C 37.769531 -7.894531 37.523438 -6.765625 37.328125 -5.859375 C 37.140625 -4.960938 36.925781 -4.039062 36.6875 -3.09375 C 36.175781 -1.207031 35.78125 -0.265625 35.5 -0.265625 C 35.21875 -0.265625 34.863281 -0.445312 34.4375 -0.8125 C 34.007812 -1.175781 33.796875 -1.550781 33.796875 -1.9375 C 33.796875 -2.320312 34.390625 -5.578125 35.578125 -11.703125 C 33.566406 -12.265625 31.425781 -12.546875 29.15625 -12.546875 C 25.21875 -12.546875 23.25 -11.441406 23.25 -9.234375 C 23.25 -7.328125 23.867188 -5.820312 25.109375 -4.71875 C 25.648438 -4.25 26.179688 -3.832031 26.703125 -3.46875 C 27.234375 -3.113281 27.675781 -2.757812 28.03125 -2.40625 C 28.394531 -2.0625 28.578125 -1.695312 28.578125 -1.3125 C 28.578125 -0.613281 28.140625 -0.265625 27.265625 -0.265625 C 25.898438 -0.265625 24.378906 -1.28125 22.703125 -3.3125 C 21.035156 -5.351562 20.203125 -7.476562 20.203125 -9.6875 C 20.203125 -10.207031 20.253906 -10.660156 20.359375 -11.046875 C 17.003906 -10.273438 13.910156 -9.863281 11.078125 -9.8125 C 9.816406 -9.21875 8.476562 -8.882812 7.0625 -8.8125 C 7.5 -8.132812 7.988281 -7.453125 8.53125 -6.765625 C 11.113281 -3.335938 12.40625 -1.441406 12.40625 -1.078125 C 12.40625 -0.429688 12.070312 -0.109375 11.40625 -0.109375 C 10.75 -0.109375 9.273438 -1.507812 6.984375 -4.3125 C 4.691406 -7.125 3.148438 -9.316406 2.359375 -10.890625 C 2.148438 -11.097656 2.046875 -11.335938 2.046875 -11.609375 C 2.046875 -11.878906 2.109375 -12.117188 2.234375 -12.328125 C 2.367188 -12.816406 2.617188 -13.0625 2.984375 -13.0625 C 3.359375 -13.0625 3.910156 -12.78125 4.640625 -12.21875 C 5.378906 -11.664062 6.113281 -11.390625 6.84375 -11.390625 C 8.820312 -11.390625 10.59375 -12.148438 12.15625 -13.671875 C 13.726562 -15.191406 14.515625 -16.894531 14.515625 -18.78125 C 14.515625 -20.675781 13.734375 -21.625 12.171875 -21.625 C 11.140625 -21.625 10.328125 -21.1875 9.734375 -20.3125 C 9.367188 -19.75 8.992188 -19.46875 8.609375 -19.46875 C 8.222656 -19.46875 7.769531 -19.671875 7.25 -20.078125 C 6.738281 -20.492188 6.484375 -20.878906 6.484375 -21.234375 C 6.484375 -21.597656 6.601562 -21.9375 6.84375 -22.25 L 3.4375 -22.25 C 2.050781 -22.25 1.359375 -22.691406 1.359375 -23.578125 C 1.359375 -24.460938 2.050781 -24.90625 3.4375 -24.90625 Z M 17.453125 -18.734375 C 17.453125 -16.492188 16.601562 -14.445312 14.90625 -12.59375 C 16.582031 -12.820312 18.539062 -13.21875 20.78125 -13.78125 C 23.019531 -14.351562 24.253906 -14.664062 24.484375 -14.71875 C 25.640625 -15.050781 27.300781 -15.21875 29.46875 -15.21875 C 31.632812 -15.21875 33.820312 -14.867188 36.03125 -14.171875 C 36.238281 -15.234375 36.53125 -16.648438 36.90625 -18.421875 C 37.28125 -20.203125 37.546875 -21.476562 37.703125 -22.25 L 16.53125 -22.25 C 17.144531 -21.269531 17.453125 -20.097656 17.453125 -18.734375 Z M 17.453125 -18.734375 "/></g></g></g><g fill="#86aedd" fill-opacity="1"><g transform="translate(106.009603, 48.119981)"><g><path d="M -10.734375 -36.84375 C -10.734375 -37.257812 -10.539062 -37.46875 -10.15625 -37.46875 C -9.4375 -37.46875 -8.570312 -37.054688 -7.5625 -36.234375 C -6.5625 -35.410156 -6.0625 -34.601562 -6.0625 -33.8125 C -6.0625 -33.03125 -5.757812 -32.097656 -5.15625 -31.015625 C -4.550781 -29.929688 -3.875 -28.992188 -3.125 -28.203125 C -1.164062 -26.160156 -0.1875 -24.921875 -0.1875 -24.484375 C -0.1875 -23.941406 -0.539062 -23.671875 -1.25 -23.671875 C -1.957031 -23.671875 -3.078125 -24.519531 -4.609375 -26.21875 C -6.140625 -27.925781 -7.539062 -29.851562 -8.8125 -32 C -10.09375 -34.144531 -10.734375 -35.757812 -10.734375 -36.84375 Z M -10.734375 -36.84375 "/></g></g></g><g fill="#86aedd" fill-opacity="1"><g transform="translate(109.71868, 52.076197)"><g><path d="M 3.28125 -4.703125 C 3.71875 -5.242188 4.15625 -5.515625 4.59375 -5.515625 C 5.03125 -5.515625 5.554688 -4.890625 6.171875 -3.640625 C 6.796875 -2.398438 7.109375 -1.46875 7.109375 -0.84375 C 7.109375 -0.664062 6.976562 -0.460938 6.71875 -0.234375 C 6.457031 -0.00390625 6.210938 0.109375 5.984375 0.109375 C 5.335938 0.109375 4.613281 -0.289062 3.8125 -1.09375 C 3.019531 -1.90625 2.625 -2.578125 2.625 -3.109375 C 2.625 -3.640625 2.84375 -4.171875 3.28125 -4.703125 Z M 8.265625 -31.28125 C 8.753906 -31.28125 9.421875 -30.972656 10.265625 -30.359375 C 11.117188 -29.742188 11.546875 -29.253906 11.546875 -28.890625 C 11.546875 -26.703125 10.984375 -22.851562 9.859375 -17.34375 C 8.742188 -11.832031 7.851562 -9.078125 7.1875 -9.078125 C 6.769531 -9.078125 6.378906 -9.285156 6.015625 -9.703125 C 5.660156 -10.128906 5.484375 -10.578125 5.484375 -11.046875 C 5.460938 -11.203125 5.625 -12.128906 5.96875 -13.828125 C 6.3125 -15.523438 6.675781 -17.910156 7.0625 -20.984375 C 7.445312 -24.066406 7.640625 -27.164062 7.640625 -30.28125 C 7.640625 -30.945312 7.847656 -31.28125 8.265625 -31.28125 Z M 8.265625 -31.28125 "/></g></g></g></svg>